<mxfile host="app.diagrams.net" agent="Mozilla/5.0 (Macintosh; Intel Mac OS X 10_15_7) AppleWebKit/537.36 (KHTML, like Gecko) Chrome/136.0.0.0 Safari/537.36" version="27.0.9">
  <diagram name="Page-1" id="R3xgu50f1EhtutpcQSua">
    <mxGraphModel dx="1276" dy="944" grid="1" gridSize="10" guides="1" tooltips="1" connect="1" arrows="1" fold="1" page="1" pageScale="1" pageWidth="850" pageHeight="1100" math="0" shadow="0">
      <root>
        <mxCell id="0" />
        <mxCell id="1" parent="0" />
        <mxCell id="ScFN9iDxGBhsysM1pNNI-1" value="MFAenabling&amp;nbsp; Process" style="swimlane;childLayout=stackLayout;resizeParent=1;resizeParentMax=0;horizontal=1;startSize=20;horizontalStack=0;html=1;" vertex="1" parent="1">
          <mxGeometry x="240" y="350" width="900" height="700" as="geometry" />
        </mxCell>
        <mxCell id="ScFN9iDxGBhsysM1pNNI-2" value="Client" style="swimlane;startSize=20;horizontal=0;html=1;" vertex="1" parent="ScFN9iDxGBhsysM1pNNI-1">
          <mxGeometry y="20" width="900" height="350" as="geometry" />
        </mxCell>
        <mxCell id="ScFN9iDxGBhsysM1pNNI-65" style="edgeStyle=orthogonalEdgeStyle;rounded=0;orthogonalLoop=1;jettySize=auto;html=1;exitX=0.5;exitY=1;exitDx=0;exitDy=0;entryX=0.25;entryY=0;entryDx=0;entryDy=0;" edge="1" parent="ScFN9iDxGBhsysM1pNNI-2" source="ScFN9iDxGBhsysM1pNNI-62" target="ScFN9iDxGBhsysM1pNNI-64">
          <mxGeometry relative="1" as="geometry" />
        </mxCell>
        <mxCell id="ScFN9iDxGBhsysM1pNNI-62" value="&lt;font style=&quot;font-size: 10px;&quot;&gt;Start&lt;/font&gt;" style="ellipse;whiteSpace=wrap;html=1;" vertex="1" parent="ScFN9iDxGBhsysM1pNNI-2">
          <mxGeometry x="50" y="10" width="75" height="50" as="geometry" />
        </mxCell>
        <mxCell id="ScFN9iDxGBhsysM1pNNI-67" style="edgeStyle=orthogonalEdgeStyle;rounded=0;orthogonalLoop=1;jettySize=auto;html=1;exitX=1;exitY=0.5;exitDx=0;exitDy=0;entryX=0;entryY=0.5;entryDx=0;entryDy=0;" edge="1" parent="ScFN9iDxGBhsysM1pNNI-2" source="ScFN9iDxGBhsysM1pNNI-64" target="ScFN9iDxGBhsysM1pNNI-66">
          <mxGeometry relative="1" as="geometry" />
        </mxCell>
        <mxCell id="ScFN9iDxGBhsysM1pNNI-64" value="Click &quot;Manage&quot; to enable 2fa with email" style="rounded=0;whiteSpace=wrap;html=1;" vertex="1" parent="ScFN9iDxGBhsysM1pNNI-2">
          <mxGeometry x="50" y="90" width="120" height="60" as="geometry" />
        </mxCell>
        <mxCell id="ScFN9iDxGBhsysM1pNNI-83" style="edgeStyle=orthogonalEdgeStyle;rounded=0;orthogonalLoop=1;jettySize=auto;html=1;exitX=1;exitY=0.5;exitDx=0;exitDy=0;entryX=0;entryY=0.5;entryDx=0;entryDy=0;" edge="1" parent="ScFN9iDxGBhsysM1pNNI-2" source="ScFN9iDxGBhsysM1pNNI-66" target="ScFN9iDxGBhsysM1pNNI-82">
          <mxGeometry relative="1" as="geometry" />
        </mxCell>
        <mxCell id="ScFN9iDxGBhsysM1pNNI-66" value="Email + password&lt;div&gt;(different email)&lt;/div&gt;" style="shape=parallelogram;perimeter=parallelogramPerimeter;whiteSpace=wrap;html=1;fixedSize=1;" vertex="1" parent="ScFN9iDxGBhsysM1pNNI-2">
          <mxGeometry x="210" y="90" width="140" height="60" as="geometry" />
        </mxCell>
        <mxCell id="ScFN9iDxGBhsysM1pNNI-82" value="OTP" style="shape=parallelogram;perimeter=parallelogramPerimeter;whiteSpace=wrap;html=1;fixedSize=1;" vertex="1" parent="ScFN9iDxGBhsysM1pNNI-2">
          <mxGeometry x="365" y="89" width="120" height="60" as="geometry" />
        </mxCell>
        <mxCell id="ScFN9iDxGBhsysM1pNNI-97" value="Display succeed" style="rounded=0;whiteSpace=wrap;html=1;" vertex="1" parent="ScFN9iDxGBhsysM1pNNI-2">
          <mxGeometry x="660" y="158" width="120" height="60" as="geometry" />
        </mxCell>
        <mxCell id="ScFN9iDxGBhsysM1pNNI-22" value="Server" style="swimlane;startSize=20;horizontal=0;html=1;" vertex="1" parent="ScFN9iDxGBhsysM1pNNI-1">
          <mxGeometry y="370" width="900" height="330" as="geometry" />
        </mxCell>
        <mxCell id="ScFN9iDxGBhsysM1pNNI-23" value="Middleware" style="swimlane;startSize=20;horizontal=0;html=1;" vertex="1" parent="ScFN9iDxGBhsysM1pNNI-22">
          <mxGeometry x="20" width="880" height="130" as="geometry" />
        </mxCell>
        <mxCell id="ScFN9iDxGBhsysM1pNNI-75" style="edgeStyle=orthogonalEdgeStyle;rounded=0;orthogonalLoop=1;jettySize=auto;html=1;exitX=1;exitY=0.5;exitDx=0;exitDy=0;entryX=0;entryY=0.5;entryDx=0;entryDy=0;endArrow=none;startFill=0;" edge="1" parent="ScFN9iDxGBhsysM1pNNI-23" source="ScFN9iDxGBhsysM1pNNI-70" target="ScFN9iDxGBhsysM1pNNI-72">
          <mxGeometry relative="1" as="geometry" />
        </mxCell>
        <mxCell id="ScFN9iDxGBhsysM1pNNI-70" value="Validate user authorization with&amp;nbsp;&lt;div&gt;access or refresh token&lt;/div&gt;" style="shape=process;whiteSpace=wrap;html=1;backgroundOutline=1;" vertex="1" parent="ScFN9iDxGBhsysM1pNNI-23">
          <mxGeometry x="30" y="20" width="320" height="90" as="geometry" />
        </mxCell>
        <mxCell id="ScFN9iDxGBhsysM1pNNI-77" style="edgeStyle=orthogonalEdgeStyle;rounded=0;orthogonalLoop=1;jettySize=auto;html=1;exitX=1;exitY=0.5;exitDx=0;exitDy=0;entryX=0;entryY=0.5;entryDx=0;entryDy=0;" edge="1" parent="ScFN9iDxGBhsysM1pNNI-23" source="ScFN9iDxGBhsysM1pNNI-72" target="ScFN9iDxGBhsysM1pNNI-78">
          <mxGeometry relative="1" as="geometry">
            <mxPoint x="660" y="65" as="targetPoint" />
          </mxGeometry>
        </mxCell>
        <mxCell id="ScFN9iDxGBhsysM1pNNI-80" value="No" style="edgeLabel;html=1;align=center;verticalAlign=middle;resizable=0;points=[];" vertex="1" connectable="0" parent="ScFN9iDxGBhsysM1pNNI-77">
          <mxGeometry x="-0.7436" relative="1" as="geometry">
            <mxPoint as="offset" />
          </mxGeometry>
        </mxCell>
        <mxCell id="ScFN9iDxGBhsysM1pNNI-72" value="authorized" style="rhombus;whiteSpace=wrap;html=1;" vertex="1" parent="ScFN9iDxGBhsysM1pNNI-23">
          <mxGeometry x="385" y="25" width="80" height="80" as="geometry" />
        </mxCell>
        <mxCell id="ScFN9iDxGBhsysM1pNNI-78" value="route to login page" style="rounded=0;whiteSpace=wrap;html=1;" vertex="1" parent="ScFN9iDxGBhsysM1pNNI-23">
          <mxGeometry x="660" y="35" width="120" height="60" as="geometry" />
        </mxCell>
        <mxCell id="ScFN9iDxGBhsysM1pNNI-71" value="Generate OTP &amp;amp; send email" style="rounded=0;whiteSpace=wrap;html=1;" vertex="1" parent="ScFN9iDxGBhsysM1pNNI-22">
          <mxGeometry x="220" y="160" width="120" height="60" as="geometry" />
        </mxCell>
        <mxCell id="ScFN9iDxGBhsysM1pNNI-73" style="edgeStyle=orthogonalEdgeStyle;rounded=0;orthogonalLoop=1;jettySize=auto;html=1;exitX=0.5;exitY=1;exitDx=0;exitDy=0;entryX=1;entryY=0.5;entryDx=0;entryDy=0;strokeColor=light-dark(#000000,#00E9FF);" edge="1" parent="ScFN9iDxGBhsysM1pNNI-22" source="ScFN9iDxGBhsysM1pNNI-72" target="ScFN9iDxGBhsysM1pNNI-71">
          <mxGeometry relative="1" as="geometry" />
        </mxCell>
        <mxCell id="ScFN9iDxGBhsysM1pNNI-76" value="Yes" style="edgeLabel;html=1;align=center;verticalAlign=middle;resizable=0;points=[];" vertex="1" connectable="0" parent="ScFN9iDxGBhsysM1pNNI-73">
          <mxGeometry x="-0.8632" y="1" relative="1" as="geometry">
            <mxPoint as="offset" />
          </mxGeometry>
        </mxCell>
        <mxCell id="ScFN9iDxGBhsysM1pNNI-89" style="edgeStyle=orthogonalEdgeStyle;rounded=0;orthogonalLoop=1;jettySize=auto;html=1;exitX=1;exitY=0.5;exitDx=0;exitDy=0;entryX=0;entryY=0.5;entryDx=0;entryDy=0;" edge="1" parent="ScFN9iDxGBhsysM1pNNI-22" source="ScFN9iDxGBhsysM1pNNI-84" target="ScFN9iDxGBhsysM1pNNI-88">
          <mxGeometry relative="1" as="geometry" />
        </mxCell>
        <mxCell id="ScFN9iDxGBhsysM1pNNI-84" value="Veirfy OTP code" style="rounded=0;whiteSpace=wrap;html=1;" vertex="1" parent="ScFN9iDxGBhsysM1pNNI-22">
          <mxGeometry x="520" y="160" width="120" height="60" as="geometry" />
        </mxCell>
        <mxCell id="ScFN9iDxGBhsysM1pNNI-86" style="edgeStyle=orthogonalEdgeStyle;rounded=0;orthogonalLoop=1;jettySize=auto;html=1;exitX=1;exitY=1;exitDx=0;exitDy=0;entryX=0.5;entryY=0;entryDx=0;entryDy=0;strokeColor=light-dark(#000000,#FF0000);" edge="1" parent="ScFN9iDxGBhsysM1pNNI-22" source="ScFN9iDxGBhsysM1pNNI-72" target="ScFN9iDxGBhsysM1pNNI-84">
          <mxGeometry relative="1" as="geometry" />
        </mxCell>
        <mxCell id="ScFN9iDxGBhsysM1pNNI-92" style="edgeStyle=orthogonalEdgeStyle;rounded=0;orthogonalLoop=1;jettySize=auto;html=1;exitX=0.5;exitY=1;exitDx=0;exitDy=0;entryX=1;entryY=0.5;entryDx=0;entryDy=0;" edge="1" parent="ScFN9iDxGBhsysM1pNNI-22" source="ScFN9iDxGBhsysM1pNNI-88" target="ScFN9iDxGBhsysM1pNNI-91">
          <mxGeometry relative="1" as="geometry" />
        </mxCell>
        <mxCell id="ScFN9iDxGBhsysM1pNNI-88" value="Succeed" style="rhombus;whiteSpace=wrap;html=1;" vertex="1" parent="ScFN9iDxGBhsysM1pNNI-22">
          <mxGeometry x="680" y="150" width="80" height="80" as="geometry" />
        </mxCell>
        <mxCell id="ScFN9iDxGBhsysM1pNNI-91" value="update user&amp;nbsp;&lt;span style=&quot;font-size: 10px; text-align: left;&quot;&gt;mfaEnabled&amp;nbsp;&amp;nbsp;&lt;/span&gt;" style="rounded=0;whiteSpace=wrap;html=1;" vertex="1" parent="ScFN9iDxGBhsysM1pNNI-22">
          <mxGeometry x="520" y="250" width="120" height="60" as="geometry" />
        </mxCell>
        <mxCell id="ScFN9iDxGBhsysM1pNNI-79" style="edgeStyle=orthogonalEdgeStyle;rounded=0;orthogonalLoop=1;jettySize=auto;html=1;exitX=0.5;exitY=1;exitDx=0;exitDy=0;entryX=0.5;entryY=0;entryDx=0;entryDy=0;strokeColor=light-dark(#000000,#00E9FF);" edge="1" parent="ScFN9iDxGBhsysM1pNNI-1" source="ScFN9iDxGBhsysM1pNNI-66" target="ScFN9iDxGBhsysM1pNNI-72">
          <mxGeometry relative="1" as="geometry">
            <Array as="points">
              <mxPoint x="280" y="260" />
              <mxPoint x="445" y="260" />
            </Array>
          </mxGeometry>
        </mxCell>
        <mxCell id="ScFN9iDxGBhsysM1pNNI-87" style="edgeStyle=orthogonalEdgeStyle;rounded=0;orthogonalLoop=1;jettySize=auto;html=1;exitX=0.75;exitY=1;exitDx=0;exitDy=0;entryX=1;entryY=0;entryDx=0;entryDy=0;strokeColor=light-dark(#000000,#FF0000);" edge="1" parent="ScFN9iDxGBhsysM1pNNI-1" source="ScFN9iDxGBhsysM1pNNI-82" target="ScFN9iDxGBhsysM1pNNI-72">
          <mxGeometry relative="1" as="geometry" />
        </mxCell>
        <mxCell id="ScFN9iDxGBhsysM1pNNI-99" style="edgeStyle=orthogonalEdgeStyle;rounded=0;orthogonalLoop=1;jettySize=auto;html=1;exitX=0;exitY=0.5;exitDx=0;exitDy=0;entryX=0;entryY=0.5;entryDx=0;entryDy=0;" edge="1" parent="ScFN9iDxGBhsysM1pNNI-1" source="ScFN9iDxGBhsysM1pNNI-91" target="ScFN9iDxGBhsysM1pNNI-97">
          <mxGeometry relative="1" as="geometry" />
        </mxCell>
        <mxCell id="ScFN9iDxGBhsysM1pNNI-44" value="DataBase " style="swimlane;" vertex="1" parent="1">
          <mxGeometry x="1140" y="350" width="200" height="700" as="geometry" />
        </mxCell>
        <mxCell id="ScFN9iDxGBhsysM1pNNI-45" value="" style="group" vertex="1" connectable="0" parent="ScFN9iDxGBhsysM1pNNI-44">
          <mxGeometry x="30" y="50" width="140" height="180" as="geometry" />
        </mxCell>
        <mxCell id="ScFN9iDxGBhsysM1pNNI-46" value="OtpSession" style="swimlane;fontStyle=0;childLayout=stackLayout;horizontal=1;startSize=26;fillColor=none;horizontalStack=0;resizeParent=1;resizeParentMax=0;resizeLast=0;collapsible=1;marginBottom=0;html=1;strokeColor=default;" vertex="1" parent="ScFN9iDxGBhsysM1pNNI-45">
          <mxGeometry width="140" height="102" as="geometry" />
        </mxCell>
        <mxCell id="ScFN9iDxGBhsysM1pNNI-47" value="&amp;nbsp;target" style="text;strokeColor=default;fillColor=none;align=left;verticalAlign=top;spacingLeft=4;spacingRight=4;overflow=hidden;rotatable=0;points=[[0,0.5],[1,0.5]];portConstraint=eastwest;whiteSpace=wrap;html=1;" vertex="1" parent="ScFN9iDxGBhsysM1pNNI-46">
          <mxGeometry y="26" width="140" height="24" as="geometry" />
        </mxCell>
        <mxCell id="ScFN9iDxGBhsysM1pNNI-48" value="sessionId" style="text;strokeColor=default;fillColor=none;align=left;verticalAlign=top;spacingLeft=4;spacingRight=4;overflow=hidden;rotatable=0;points=[[0,0.5],[1,0.5]];portConstraint=eastwest;whiteSpace=wrap;html=1;" vertex="1" parent="ScFN9iDxGBhsysM1pNNI-46">
          <mxGeometry y="50" width="140" height="26" as="geometry" />
        </mxCell>
        <mxCell id="ScFN9iDxGBhsysM1pNNI-49" value="otpHash" style="text;strokeColor=default;fillColor=none;align=left;verticalAlign=top;spacingLeft=4;spacingRight=4;overflow=hidden;rotatable=0;points=[[0,0.5],[1,0.5]];portConstraint=eastwest;whiteSpace=wrap;html=1;" vertex="1" parent="ScFN9iDxGBhsysM1pNNI-46">
          <mxGeometry y="76" width="140" height="26" as="geometry" />
        </mxCell>
        <mxCell id="ScFN9iDxGBhsysM1pNNI-50" value="attempts" style="text;strokeColor=default;fillColor=none;align=left;verticalAlign=top;spacingLeft=4;spacingRight=4;overflow=hidden;rotatable=0;points=[[0,0.5],[1,0.5]];portConstraint=eastwest;whiteSpace=wrap;html=1;" vertex="1" parent="ScFN9iDxGBhsysM1pNNI-45">
          <mxGeometry y="102" width="140" height="26" as="geometry" />
        </mxCell>
        <mxCell id="ScFN9iDxGBhsysM1pNNI-51" value="&lt;font style=&quot;font-size: 10px;&quot;&gt;purpose: email_verification&lt;/font&gt;" style="text;strokeColor=default;fillColor=none;align=left;verticalAlign=top;spacingLeft=4;spacingRight=4;overflow=hidden;rotatable=0;points=[[0,0.5],[1,0.5]];portConstraint=eastwest;whiteSpace=wrap;html=1;" vertex="1" parent="ScFN9iDxGBhsysM1pNNI-45">
          <mxGeometry y="128" width="140" height="26" as="geometry" />
        </mxCell>
        <mxCell id="ScFN9iDxGBhsysM1pNNI-52" value="&lt;font style=&quot;font-size: 10px;&quot;&gt;verified&lt;/font&gt;" style="text;strokeColor=default;fillColor=none;align=left;verticalAlign=top;spacingLeft=4;spacingRight=4;overflow=hidden;rotatable=0;points=[[0,0.5],[1,0.5]];portConstraint=eastwest;whiteSpace=wrap;html=1;" vertex="1" parent="ScFN9iDxGBhsysM1pNNI-45">
          <mxGeometry y="154" width="140" height="26" as="geometry" />
        </mxCell>
        <mxCell id="ScFN9iDxGBhsysM1pNNI-53" value="" style="group" vertex="1" connectable="0" parent="1">
          <mxGeometry x="1171" y="620" width="140" height="180" as="geometry" />
        </mxCell>
        <mxCell id="ScFN9iDxGBhsysM1pNNI-54" value="User" style="swimlane;fontStyle=0;childLayout=stackLayout;horizontal=1;startSize=26;fillColor=none;horizontalStack=0;resizeParent=1;resizeParentMax=0;resizeLast=0;collapsible=1;marginBottom=0;html=1;strokeColor=default;" vertex="1" parent="ScFN9iDxGBhsysM1pNNI-53">
          <mxGeometry width="140" height="102" as="geometry" />
        </mxCell>
        <mxCell id="ScFN9iDxGBhsysM1pNNI-55" value="username" style="text;strokeColor=default;fillColor=none;align=left;verticalAlign=top;spacingLeft=4;spacingRight=4;overflow=hidden;rotatable=0;points=[[0,0.5],[1,0.5]];portConstraint=eastwest;whiteSpace=wrap;html=1;" vertex="1" parent="ScFN9iDxGBhsysM1pNNI-54">
          <mxGeometry y="26" width="140" height="24" as="geometry" />
        </mxCell>
        <mxCell id="ScFN9iDxGBhsysM1pNNI-56" value="email" style="text;strokeColor=default;fillColor=none;align=left;verticalAlign=top;spacingLeft=4;spacingRight=4;overflow=hidden;rotatable=0;points=[[0,0.5],[1,0.5]];portConstraint=eastwest;whiteSpace=wrap;html=1;" vertex="1" parent="ScFN9iDxGBhsysM1pNNI-54">
          <mxGeometry y="50" width="140" height="26" as="geometry" />
        </mxCell>
        <mxCell id="ScFN9iDxGBhsysM1pNNI-57" value="passwordHash" style="text;strokeColor=default;fillColor=none;align=left;verticalAlign=top;spacingLeft=4;spacingRight=4;overflow=hidden;rotatable=0;points=[[0,0.5],[1,0.5]];portConstraint=eastwest;whiteSpace=wrap;html=1;" vertex="1" parent="ScFN9iDxGBhsysM1pNNI-54">
          <mxGeometry y="76" width="140" height="26" as="geometry" />
        </mxCell>
        <mxCell id="ScFN9iDxGBhsysM1pNNI-58" value="roles" style="text;strokeColor=default;fillColor=none;align=left;verticalAlign=top;spacingLeft=4;spacingRight=4;overflow=hidden;rotatable=0;points=[[0,0.5],[1,0.5]];portConstraint=eastwest;whiteSpace=wrap;html=1;" vertex="1" parent="ScFN9iDxGBhsysM1pNNI-53">
          <mxGeometry y="102" width="140" height="26" as="geometry" />
        </mxCell>
        <mxCell id="ScFN9iDxGBhsysM1pNNI-59" value="&lt;font style=&quot;font-size: 10px;&quot;&gt;isEmailVerified&lt;/font&gt;" style="text;strokeColor=default;fillColor=none;align=left;verticalAlign=top;spacingLeft=4;spacingRight=4;overflow=hidden;rotatable=0;points=[[0,0.5],[1,0.5]];portConstraint=eastwest;whiteSpace=wrap;html=1;" vertex="1" parent="ScFN9iDxGBhsysM1pNNI-53">
          <mxGeometry y="128" width="140" height="26" as="geometry" />
        </mxCell>
        <mxCell id="ScFN9iDxGBhsysM1pNNI-60" value="&lt;font style=&quot;font-size: 10px;&quot;&gt;mfaEnabled&amp;nbsp;&amp;nbsp;&lt;/font&gt;" style="text;strokeColor=default;fillColor=none;align=left;verticalAlign=top;spacingLeft=4;spacingRight=4;overflow=hidden;rotatable=0;points=[[0,0.5],[1,0.5]];portConstraint=eastwest;whiteSpace=wrap;html=1;" vertex="1" parent="ScFN9iDxGBhsysM1pNNI-53">
          <mxGeometry y="154" width="140" height="26" as="geometry" />
        </mxCell>
        <mxCell id="ScFN9iDxGBhsysM1pNNI-100" style="edgeStyle=orthogonalEdgeStyle;rounded=0;orthogonalLoop=1;jettySize=auto;html=1;exitX=1;exitY=1;exitDx=0;exitDy=0;entryX=0.429;entryY=1.038;entryDx=0;entryDy=0;entryPerimeter=0;dashed=1;" edge="1" parent="1" source="ScFN9iDxGBhsysM1pNNI-91" target="ScFN9iDxGBhsysM1pNNI-60">
          <mxGeometry relative="1" as="geometry">
            <Array as="points">
              <mxPoint x="880" y="1020" />
              <mxPoint x="1231" y="1020" />
            </Array>
          </mxGeometry>
        </mxCell>
        <mxCell id="ScFN9iDxGBhsysM1pNNI-101" style="edgeStyle=orthogonalEdgeStyle;rounded=0;orthogonalLoop=1;jettySize=auto;html=1;exitX=1;exitY=1;exitDx=0;exitDy=0;entryX=0;entryY=-0.038;entryDx=0;entryDy=0;entryPerimeter=0;dashed=1;" edge="1" parent="1" source="ScFN9iDxGBhsysM1pNNI-71" target="ScFN9iDxGBhsysM1pNNI-50">
          <mxGeometry relative="1" as="geometry">
            <Array as="points">
              <mxPoint x="580" y="1040" />
              <mxPoint x="1150" y="1040" />
              <mxPoint x="1150" y="482" />
              <mxPoint x="1170" y="482" />
            </Array>
          </mxGeometry>
        </mxCell>
      </root>
    </mxGraphModel>
  </diagram>
</mxfile>
